<svg
  xmlns="http://www.w3.org/2000/svg"
  width="100"
  height="30"
  viewBox="0 0 100 30"
  fill="none"
>
  <path
    fill-rule="evenodd"
    clip-rule="evenodd"
    d="M100 0H55.8145V30H100V0ZM69.7685 8.26018V14.8038V21.3166C69.7685 21.3305 69.7688 21.3444 69.7692 21.3583L69.7692 21.3583V21.3584C69.7699 21.3859 69.7706 21.4132 69.7685 21.4399C69.7623 21.5153 69.7824 21.56 69.8692 21.5477C69.8898 21.5456 69.9104 21.5463 69.9311 21.547C69.9414 21.5473 69.9517 21.5477 69.9621 21.5477C70.3279 21.5477 70.6939 21.5478 71.06 21.548H71.0627C71.7944 21.5483 72.5266 21.5487 73.2587 21.5477C73.2818 21.5477 73.3023 21.5479 73.3203 21.5481C73.3908 21.549 73.4251 21.5494 73.4414 21.5325C73.4568 21.5165 73.4562 21.485 73.4548 21.4236V21.4235C73.4544 21.4027 73.4539 21.3786 73.4539 21.3505V8.27866C73.4539 8.2684 73.4535 8.25813 73.4532 8.24786C73.4525 8.22733 73.4518 8.20679 73.4539 8.18626C73.4616 8.10926 73.4353 8.06922 73.3517 8.07846C73.3352 8.0805 73.318 8.07983 73.3007 8.07915L73.3006 8.07915C73.2919 8.0788 73.283 8.07846 73.2742 8.07846C72.9048 8.07846 72.5353 8.07829 72.1656 8.07812H72.1655H72.1653C71.4256 8.07777 70.6858 8.07743 69.9466 8.07846C69.9247 8.07846 69.9054 8.07817 69.8885 8.07792C69.8275 8.07701 69.7969 8.07655 69.7818 8.09162C69.7665 8.10681 69.767 8.13779 69.7679 8.19999C69.7682 8.21747 69.7685 8.23742 69.7685 8.26018ZM88.124 8.07891H82.627C80.7951 8.07891 78.9633 8.07891 77.133 8.07737L77.1127 8.07747L77.0914 8.07771C77.0641 8.07805 77.037 8.07839 77.0091 8.07737C76.9472 8.07429 76.9255 8.10355 76.9302 8.16053C76.9312 8.17793 76.9309 8.19464 76.9305 8.21158C76.9303 8.22014 76.9302 8.22875 76.9302 8.23753V11.3638L76.9301 11.3962C76.9298 11.4633 76.9296 11.4963 76.946 11.5124C76.962 11.5281 76.9937 11.5279 77.0562 11.5273L77.099 11.5271H80.552C80.6648 11.5271 80.7205 11.5271 80.7481 11.5549C80.775 11.5822 80.775 11.6361 80.775 11.7427V21.3818C80.775 21.4003 80.7748 21.4167 80.7746 21.4313V21.4313C80.7738 21.4866 80.7734 21.5155 80.7876 21.5306C80.8032 21.5471 80.8366 21.547 80.9065 21.5467L80.9407 21.5466H80.9872H84.2544C84.3584 21.5466 84.4098 21.5466 84.4353 21.5208C84.4604 21.4956 84.4604 21.4455 84.4604 21.3464V11.7072C84.4604 11.6863 84.4601 11.6678 84.4598 11.6515C84.4589 11.592 84.4584 11.561 84.4737 11.545C84.4902 11.5276 84.5253 11.5279 84.5986 11.5284L84.6446 11.5286H88.1597C88.3114 11.5286 88.3114 11.5286 88.313 11.3792V11.333V8.26833C88.313 8.24704 88.3132 8.22811 88.3134 8.21128V8.21111C88.3142 8.14342 88.3146 8.10979 88.298 8.09332C88.2816 8.07705 88.2486 8.0775 88.1831 8.0784C88.1658 8.07864 88.1462 8.07891 88.124 8.07891Z"
    style="fill: rgb(255,107,10)"
  ></path>
  <path
    fill-rule="evenodd"
    clip-rule="evenodd"
    d="M44.186 0H0V30H44.186L55.8139 15L44.186 0ZM19.4552 12.8078C19.5219 12.862 19.5891 12.9164 19.6571 12.971C19.7023 12.9435 19.7302 12.9059 19.7565 12.8705L19.7565 12.8705C19.7626 12.8623 19.7687 12.8541 19.7748 12.8462C20.0133 12.5629 20.2502 12.278 20.4871 11.9931C20.9625 11.4248 21.4363 10.8565 21.9102 10.2867C22.0046 10.1727 22.0015 10.1204 21.8931 10.028C21.808 9.95405 21.7212 9.88167 21.633 9.80929C20.8804 9.19327 20.0535 8.71278 19.1167 8.43403C18.4911 8.24922 17.8516 8.14758 17.2013 8.10292C16.3527 8.04594 15.5119 8.07366 14.6788 8.26616C11.7615 8.93762 9.58438 11.3524 9.32888 14.4479C9.26075 15.2826 9.32579 16.1096 9.53947 16.9212C10.0257 18.7585 11.0817 20.1661 12.7587 21.0932C13.6723 21.5983 14.6618 21.8647 15.7024 21.9479C16.5834 22.0187 17.4552 21.9648 18.3162 21.7708C19.7717 21.4428 21.0585 20.7805 22.2028 19.8334C22.2942 19.758 22.3313 19.6825 22.3313 19.5624C22.3276 18.0888 22.3279 16.6143 22.3281 15.1403L22.3282 14.0352C22.3282 14.016 22.3269 13.9966 22.3256 13.9772C22.3226 13.9341 22.3196 13.8912 22.3313 13.8519C22.3449 13.8063 22.3203 13.7801 22.2964 13.7547C22.2766 13.7337 22.2573 13.7131 22.2601 13.6825C22.2663 13.6317 22.2322 13.624 22.192 13.624H22.0836H16.0461C16.0343 13.624 16.0223 13.6243 16.0103 13.6246C15.986 13.6253 15.9615 13.626 15.9377 13.624C15.8758 13.6178 15.8557 13.6486 15.8603 13.7056C15.8624 13.7293 15.8617 13.7536 15.861 13.7777C15.8606 13.7897 15.8603 13.8016 15.8603 13.8134C15.8603 14.1368 15.8601 14.4602 15.86 14.7836C15.8596 15.4304 15.8593 16.0773 15.8603 16.7241C15.8603 16.7508 15.8598 16.7739 15.8594 16.7937C15.8581 16.8529 15.8575 16.8833 15.8724 16.8988C15.8881 16.9151 15.9213 16.9147 15.9897 16.9139H15.9898C16.0068 16.9137 16.026 16.9135 16.0477 16.9135H18.4788C18.5002 16.9135 18.5192 16.9133 18.536 16.9131C18.6034 16.9123 18.6361 16.9119 18.6518 16.928C18.6665 16.9433 18.666 16.9733 18.6651 17.0316C18.6648 17.0522 18.6644 17.0763 18.6646 17.1045C18.6656 17.2451 18.6653 17.385 18.6649 17.5251C18.6647 17.5953 18.6646 17.6655 18.6646 17.7359V17.741C18.6646 18.0301 18.6646 18.0323 18.4029 18.1578C17.6364 18.5244 16.8265 18.6291 15.9904 18.5244C15.0613 18.4089 14.318 17.97 13.773 17.2107C13.4184 16.7164 13.2248 16.1589 13.152 15.5583C13.0607 14.7913 13.1536 14.0536 13.502 13.3575C13.9216 12.5213 14.5565 11.9207 15.4685 11.645C16.1081 11.451 16.7553 11.5018 17.3964 11.6419C17.9771 11.7682 18.4834 12.0516 18.9495 12.4073C19.1203 12.5364 19.2863 12.6709 19.4549 12.8076L19.4551 12.8078L19.4552 12.8078ZM36.6544 10.014C35.2221 8.71117 33.5157 8.09053 31.752 8.07667C30.9375 8.07821 30.3289 8.14443 29.6832 8.3123C27.8096 8.80049 26.3432 9.84772 25.3692 11.5202C24.3689 13.2358 24.166 15.0762 24.725 16.9689C25.3506 19.0849 26.6838 20.6249 28.7464 21.4827C30.3305 22.1403 31.9718 22.2281 33.6272 21.7938C35.5503 21.2902 37.0245 20.1768 37.9907 18.4396C38.8052 16.975 39.0235 15.4042 38.72 13.764C38.4475 12.2902 37.7662 11.0274 36.6544 10.014ZM28.7448 13.322C29.3689 12.1716 30.3661 11.6203 31.3339 11.5987C33.2973 11.5941 34.581 12.6983 34.931 14.2291C35.1431 15.1516 35.0486 16.0479 34.5949 16.8857C34.0607 17.8698 33.2276 18.4427 32.1066 18.5705C31.0226 18.6952 30.0765 18.3888 29.3038 17.6095C28.8083 17.1105 28.5095 16.5022 28.3825 15.8154C28.2215 14.9453 28.3206 14.1028 28.7448 13.322Z"
    style="fill: #010101"
  ></path>
</svg>
